<?xml version="1.0" encoding="UTF-8"?>
<!-- Took from https://static.npmjs.com/6d9930e83bbb43bba93e22eda2871b55.svg and https://upload.wikimedia.org/wikipedia/commons/d/d5/CSS3_logo_and_wordmark.svg -->
<svg version="1.1" xmlns="http://www.w3.org/2000/svg" xmlns:xlink="http://www.w3.org/1999/xlink" x="0px" y="0px" viewBox="0 0 256 256">
<style type="text/css">
	.st0{fill:#3178C6;}
	.st1{fill:#FFFFFF;}
  #layer1{transform:scale(0.75);}
</style>
<rect class="st0" width="256" height="256"/>
<rect x="6" y="6" class="st1" width="244" height="244"/>
<path class="st0" d="M41.8,111.5c8.6-1.6,19.9-2.5,31.8-2.5c19.7,0,32.6,4.2,42.6,13c10.8,9.4,17.6,24.5,17.6,46  c0,23.4-7.3,39.5-17.3,49.5c-11,10.7-27.6,15.8-48,15.8c-12.2,0-20.8-0.9-26.7-1.8V111.5z M65.4,211.2c2,0.5,5.2,0.5,8.2,0.5  c21.3,0.2,35.2-13.6,35.2-42.7c0.2-25.4-12.5-38.8-32.7-38.8c-5.2,0-8.6,0.5-10.6,1.1V211.2z"/>
<path class="st0" d="M169.4,134.7h-32.2v-22.8h92.3v22.8h-32.8V232h-27.3V134.7z"/>
<g id="layer1" class="st0">
    <path id="path2999" d="m 0,0 55,0 0,23 -32,0 0,23 32,0 0,23 -55,0 z" />
    <path id="path3001" d="m 66,0 55,0 0,20 -32,0 0,4 32,0 0,46 -55,0 0,-21 32,0 0,-4 -32,0 z" />
    <path id="path3003" d="m 132,0 55,0 0,20 -32,0 0,4 32,0 0,46 -55,0 0,-21 32,0 0,-4 -32,0 z" />
</g>
</svg>